<svg width="29" height="29" viewBox="0 0 29 29" fill="none" xmlns="http://www.w3.org/2000/svg">
<g clip-path="url(#clip0_1717_20742)">
<path d="M14.5 29C22.5081 29 29 22.5081 29 14.5C29 6.49187 22.5081 0 14.5 0C6.49187 0 0 6.49187 0 14.5C0 22.5081 6.49187 29 14.5 29Z" fill="white"/>
<path d="M14.5 0C6.49218 0 0 6.49218 0 14.5C0 20.6461 3.81893 25.8971 9.21317 28.0095C9.08189 26.8638 8.97448 25.0975 9.2609 23.8444C9.52345 22.7107 10.9556 16.6362 10.9556 16.6362C10.9556 16.6362 10.5259 15.765 10.5259 14.4881C10.5259 12.4712 11.6955 10.9675 13.1514 10.9675C14.3926 10.9675 14.9893 11.8984 14.9893 13.0082C14.9893 14.2494 14.2016 16.1111 13.7839 17.8416C13.4379 19.2856 14.5119 20.4671 15.9321 20.4671C18.5099 20.4671 20.4909 17.7461 20.4909 13.8317C20.4909 10.3588 17.9967 7.93621 14.4284 7.93621C10.2992 7.93621 7.87654 11.0272 7.87654 14.2255C7.87654 15.4667 8.35391 16.8033 8.95062 17.5313C9.06996 17.6745 9.08189 17.8058 9.04609 17.949C8.93868 18.4025 8.68806 19.393 8.64033 19.5959C8.58066 19.8584 8.42551 19.9181 8.15103 19.7868C6.33704 18.9395 5.20329 16.3021 5.20329 14.1658C5.20329 9.59506 8.52099 5.39424 14.7864 5.39424C19.8107 5.39424 23.7251 8.97449 23.7251 13.772C23.7251 18.7724 20.5745 22.7942 16.2066 22.7942C14.7387 22.7942 13.3543 22.0305 12.8889 21.1235C12.8889 21.1235 12.1609 23.8922 11.9819 24.5724C11.6597 25.8374 10.7765 27.4128 10.1798 28.3794C11.5403 28.7971 12.9724 29.0239 14.4761 29.0239C22.4839 29.0239 28.9761 22.5317 28.9761 14.5239C29 6.49218 22.5078 0 14.5 0Z" fill="#E60019"/>
</g>
<defs>
<clipPath id="clip0_1717_20742">
<rect width="29" height="29" fill="white"/>
</clipPath>
</defs>
</svg>
