<svg width="29" height="21" viewBox="0 0 29 21" fill="none" xmlns="http://www.w3.org/2000/svg">
<path d="M28.3936 3.19C28.2297 2.57304 27.9066 2.00997 27.4566 1.55713C27.0067 1.10428 26.4457 0.777563 25.8298 0.609659C23.5625 7.20223e-08 14.5 0 14.5 0C14.5 0 5.4375 7.20223e-08 3.17023 0.609659C2.55433 0.777563 1.99334 1.10428 1.54339 1.55713C1.09344 2.00997 0.770319 2.57304 0.606364 3.19C7.20223e-08 5.46716 0 10.2159 0 10.2159C0 10.2159 7.20223e-08 14.9647 0.606364 17.2418C0.770319 17.8588 1.09344 18.4218 1.54339 18.8747C1.99334 19.3275 2.55433 19.6543 3.17023 19.8222C5.4375 20.4318 14.5 20.4318 14.5 20.4318C14.5 20.4318 23.5625 20.4318 25.8298 19.8222C26.4457 19.6543 27.0067 19.3275 27.4566 18.8747C27.9066 18.4218 28.2297 17.8588 28.3936 17.2418C29 14.9647 29 10.2159 29 10.2159C29 10.2159 29 5.46716 28.3936 3.19Z" fill="#FF0302"/>
<path d="M11.5332 14.528V5.90381L19.1127 10.2159L11.5332 14.528Z" fill="#FEFEFE"/>
</svg>
